<?xml version="1.0" encoding="utf-8"?>
<!-- Generator: Adobe Illustrator 19.0.0, SVG Export Plug-In . SVG Version: 6.00 Build 0)  -->
<svg version="1.1" id="Capa_1" xmlns="http://www.w3.org/2000/svg" xmlns:xlink="http://www.w3.org/1999/xlink" x="0px" y="0px"
	 viewBox="-49 141 512 512" style="enable-background:new -49 141 512 512;" xml:space="preserve">
<style type="text/css">
	.st0{fill:url(#XMLID_13_);}
	.st1{fill:url(#XMLID_14_);}
	.st2{fill:url(#XMLID_15_);}
</style>
<g id="XMLID_2_">
	<g id="XMLID_10_">
		
			<linearGradient id="XMLID_13_" gradientUnits="userSpaceOnUse" x1="207" y1="655" x2="207" y2="143" gradientTransform="matrix(1 0 0 -1 0 796)">
			<stop  offset="0" style="stop-color:#781F11"/>
			<stop  offset="0.3042" style="stop-color:#812215"/>
			<stop  offset="0.7987" style="stop-color:#992C1E"/>
			<stop  offset="1" style="stop-color:#A53023"/>
		</linearGradient>
		<circle id="XMLID_12_" class="st0" cx="207" cy="397" r="256"/>
		
			<linearGradient id="XMLID_14_" gradientUnits="userSpaceOnUse" x1="206.9744" y1="603.7744" x2="206.9744" y2="237.2208" gradientTransform="matrix(1 0 0 -1 0 796)">
			<stop  offset="0" style="stop-color:#F7F7F8;stop-opacity:0.5"/>
			<stop  offset="0.8" style="stop-color:#141414;stop-opacity:0"/>
		</linearGradient>
		<circle id="XMLID_11_" class="st1" cx="207" cy="397" r="204.8"/>
	</g>
	<g id="XMLID_3_">
		
			<image style="overflow:visible;opacity:0.75;enable-background:new    ;" width="71" height="75" id="XMLID_9_" xlink:href="2DAD15F4.png"  transform="matrix(5.8844 0 0 5.8163 -0.6493 179.6509)">
		</image>
		<g id="XMLID_4_">
			
				<linearGradient id="XMLID_15_" gradientUnits="userSpaceOnUse" x1="207" y1="539.5696" x2="207" y2="258.4816" gradientTransform="matrix(1 0 0 -1 0 796)">
				<stop  offset="0" style="stop-color:#EB6557"/>
				<stop  offset="6.140000e-002" style="stop-color:#E65B4C"/>
				<stop  offset="0.2105" style="stop-color:#DD4838"/>
				<stop  offset="0.3578" style="stop-color:#D73C2B"/>
				<stop  offset="0.5" style="stop-color:#D53827"/>
				<stop  offset="0.6422" style="stop-color:#D73C2B"/>
				<stop  offset="0.7895" style="stop-color:#DD4838"/>
				<stop  offset="0.9386" style="stop-color:#E65B4C"/>
				<stop  offset="1" style="stop-color:#EB6557"/>
			</linearGradient>
			<path id="XMLID_5_" class="st2" d="M333.7,424.4c-2.8-7.8-6.6-14.6-11.2-20.3c-4.8-5.8-10.4-10.5-16.9-14.3
				c-2.7-1.6-5.5-2.9-8.3-4.2c7.1-4,13.4-9.3,18.7-15.8c8.1-10.1,12.3-21.6,12.3-34.5c0-24.3-9-43.9-26.5-58.1
				c-17.3-13.9-42.5-20.9-75.2-20.9H76.2v281.1H213c41.5,0,72.9-7.7,93.3-22.9c20.9-15.5,31.5-36.7,31.5-63.1
				C337.8,441.3,336.5,432.1,333.7,424.4z M151.1,418.4h68.1c14.1,0,25.1,2.5,32.7,7.4c7,4.5,10.4,11.6,10.4,21.8
				c0,9.7-3.7,17.5-11.2,23.9c-7.7,6.5-18.8,9.8-32.9,9.8h-67.2V418.4z M217.8,362.1h-66.7v-48.5h62.8c14.6,0,25.1,2,31.2,6
				c5.5,3.7,8.1,9.6,8.1,18.2C253.3,348.3,249.5,362.1,217.8,362.1z"/>
		</g>
	</g>
</g>
</svg>
