<?xml version="1.0" encoding="utf-8"?>
<!-- Generator: Adobe Illustrator 19.0.0, SVG Export Plug-In . SVG Version: 6.00 Build 0)  -->
<svg version="1.1" id="Capa_1" xmlns="http://www.w3.org/2000/svg" xmlns:xlink="http://www.w3.org/1999/xlink" x="0px" y="0px"
	 viewBox="-49 141 512 512" style="enable-background:new -49 141 512 512;" xml:space="preserve">
<style type="text/css">
	.st0{fill:#FFFFFF;}
</style>
<g>
	<g>
		<path class="st0" d="M-49,300.8v192.5c0,9.2,3.3,17.3,9.7,23.9c6.3,6.4,14.4,9.7,23.9,9.7h403.3c9.1,0,16.9-3.3,23.6-10
			c6.7-6.7,10-14.4,10-23.6v-44.4h26.1c8.6,0,15.5-6.7,15.5-15.3v-1.7v-1.1v-66.6v-1.7v-1.1c0-8.6-6.9-15.3-15.5-15.3h-26.1v-45.5
			c0-9.1-3.3-16.9-10-23.6s-14.4-10-23.6-10H-15.4c-9.4,0-17.4,3.4-23.9,10C-45.6,283.6-49,291.6-49,300.8z M-18.2,493.2l0-192.5
			c0-1.9,0.8-2.8,2.8-2.8h403.3c1.1,0,3.1,1.7,3.1,2.8v192.5c0,1.1-1.9,2.8-3.1,2.8H-15.4C-17.4,496-18.2,495.2-18.2,493.2
			L-18.2,493.2z"/>
	</g>
</g>
<g>
	<g>
		<path class="st0" d="M258.6,350l-47,47l47,47c7,7,7,18.3,0,25.3c-3.5,3.5-8.1,5.2-12.6,5.2c-4.6,0-9.2-1.7-12.6-5.2l-47-47l-47,47
			c-3.5,3.5-8.1,5.2-12.6,5.2c-4.6,0-9.2-1.7-12.6-5.2c-7-7-7-18.3,0-25.3l47-47l-47-47c-7-7-7-18.3,0-25.3c7-7,18.3-7,25.3,0l47,47
			l47-47c7-7,18.3-7,25.3,0C265.6,331.7,265.6,343,258.6,350z"/>
	</g>
	<g>
	</g>
	<g>
	</g>
	<g>
	</g>
	<g>
	</g>
	<g>
	</g>
	<g>
	</g>
	<g>
	</g>
	<g>
	</g>
	<g>
	</g>
	<g>
	</g>
	<g>
	</g>
	<g>
	</g>
	<g>
	</g>
	<g>
	</g>
	<g>
	</g>
</g>
</svg>
