<?xml version="1.0" encoding="utf-8"?>
<!-- Generator: Adobe Illustrator 16.0.0, SVG Export Plug-In . SVG Version: 6.00 Build 0)  -->
<!DOCTYPE svg PUBLIC "-//W3C//DTD SVG 1.1//EN" "http://www.w3.org/Graphics/SVG/1.1/DTD/svg11.dtd">
<svg version="1.1"
	 id="Ebene_1" xmlns:svg="http://www.w3.org/2000/svg" xmlns:dc="http://purl.org/dc/elements/1.1/" xmlns:cc="http://creativecommons.org/ns#" xmlns:rdf="http://www.w3.org/1999/02/22-rdf-syntax-ns#"
	 xmlns="http://www.w3.org/2000/svg" xmlns:xlink="http://www.w3.org/1999/xlink" x="0px" y="0px" width="600px" height="600px"
	 viewBox="0 0 600 600" enable-background="new 0 0 600 600" xml:space="preserve">
<path id="path3033" fill="#666666" d="M590,300c0.035,160.133-129.791,289.981-289.954,290
	C139.878,590.021,10.018,460.219,10,300.087c0-0.035,0-0.067,0-0.084C9.965,139.846,139.789,10.017,299.957,10
	C460.123,9.98,589.983,139.78,590,299.912C590,299.93,590,299.968,590,300z"/>
<radialGradient id="path3035_1_" cx="-10722.9287" cy="697.7891" r="9.3921" gradientTransform="matrix(0 57.868 50.8105 0 -35161.5781 620782.6875)" gradientUnits="userSpaceOnUse">
	<stop  offset="0.2587" style="stop-color:#FFFFFF"/>
	<stop  offset="1" style="stop-color:#FFFFFF;stop-opacity:0"/>
</radialGradient>
<path id="path3035" fill="url(#path3035_1_)" d="M590,300c0.035,160.133-129.791,289.981-289.954,290
	C139.878,590.021,10.018,460.219,10,300.087c0-0.035,0-0.067,0-0.084C9.965,139.846,139.789,10.017,299.957,10
	C460.123,9.98,589.983,139.78,590,299.912C590,299.93,590,299.968,590,300z"/>
<g id="g4010" transform="matrix(1.0075011,0,0,1.0008426,-0.23709798,0.02715301)">
	<g id="g3951">
		<g id="g3917" transform="translate(1.334375,-34.927083)">
			<path id="path3900" fill="#00A54D" d="M223.612,207.744C191.844,246.966,58.699,406.372,70.509,514.158
				c8.217,10.604,17.278,20.511,26.852,29.879c-1.39-82.511,93.712-170.805,167.94-237.444L223.612,207.744z"/>
		</g>
		<g id="g3988" transform="translate(1.334375,-34.927083)">
			
				<linearGradient id="path3990_1_" gradientUnits="userSpaceOnUse" x1="-10429.0801" y1="667.4721" x2="-10440.9727" y2="681.4261" gradientTransform="matrix(35.0752 0 0 -33.9313 365995.875 23062.3125)">
				<stop  offset="0" style="stop-color:#97CA43"/>
				<stop  offset="1" style="stop-color:#97CA43;stop-opacity:0"/>
			</linearGradient>
			<path id="path3990" fill="url(#path3990_1_)" d="M223.612,207.744C191.844,246.966,58.699,406.372,70.509,514.158
				c8.217,10.604,17.278,20.511,26.852,29.879c-1.39-82.511,93.712-170.805,167.94-237.444L223.612,207.744z"/>
		</g>
		<g id="g3888" transform="translate(1.196189,-34.89572)">
			<g id="g3876">
				<path id="path3089" fill="#02A74D" d="M145.631,88.201c-16.607,10.168-32.026,22.114-46.194,35.309
					c45.659,8.832,91.473,49.753,116.573,83.653c21.867,34.787,33.75,66.704,49.2,99.636c10.451-9.006,21.092-18.187,32.593-27.594
					l-0.066-143.02c-34.021-21.522-90.253-49.845-151.558-48.016C146.028,88.288,145.754,88.115,145.631,88.201z"/>
				
					<linearGradient id="path4000_1_" gradientUnits="userSpaceOnUse" x1="-10428.498" y1="673.1177" x2="-10417.6553" y2="697.1858" gradientTransform="matrix(35.0752 0 0 -33.9313 365971.3125 23061.4082)">
					<stop  offset="0" style="stop-color:#97CA43"/>
					<stop  offset="1" style="stop-color:#97CA43;stop-opacity:0"/>
				</linearGradient>
				<path id="path4000" fill="url(#path4000_1_)" d="M145.631,88.201c-16.607,10.168-32.026,22.114-46.194,35.309
					c45.659,8.832,91.473,49.753,116.573,83.653c21.867,34.787,33.75,66.704,49.2,99.636c10.451-9.006,21.092-18.187,32.593-27.594
					l-0.066-143.02c-34.021-21.522-90.253-49.845-151.558-48.016C146.028,88.288,145.754,88.115,145.631,88.201z"/>
			</g>
		</g>
	</g>
</g>
<g id="g4021" transform="matrix(-1.0041673,0,0,1.0016853,63.252358,0.05430602)">
	<g id="g4023">
		<g id="g4025" transform="translate(1.334375,-34.927083)">
			<path id="path4027" fill="#00A54D" d="M-310.492,207.672c-31.767,39.224-164.911,198.628-153.101,306.407
				c8.214,10.607,17.274,20.52,26.845,29.888c-1.392-82.511,93.727-170.812,167.942-237.46L-310.492,207.672z"/>
		</g>
		<g id="g4029" transform="translate(1.334375,-34.927083)">
			
				<linearGradient id="path4031_1_" gradientUnits="userSpaceOnUse" x1="725.9047" y1="669.3408" x2="714.1131" y2="683.1742" gradientTransform="matrix(-34.4986 0 0 -34.0744 24668.6973 23183.7422)">
				<stop  offset="0" style="stop-color:#97CA43"/>
				<stop  offset="1" style="stop-color:#97CA43;stop-opacity:0"/>
			</linearGradient>
			<path id="path4031" fill="url(#path4031_1_)" d="M-310.492,207.672c-31.767,39.224-164.911,198.628-153.101,306.407
				c8.214,10.607,17.274,20.52,26.845,29.888c-1.392-82.511,93.727-170.812,167.942-237.46L-310.492,207.672z"/>
		</g>
		<g id="g4033" transform="translate(1.196189,-34.89572)">
			<g id="g4035">
				<path id="path4037" fill="#02A74D" d="M-388.467,88.131c-16.615,10.172-32.03,22.113-46.211,35.304
					c45.658,8.83,91.478,49.754,116.575,83.673c21.877,34.789,33.761,66.706,49.198,99.633
					c10.453-9.008,21.095-18.184,32.593-27.591l-0.069-143.028C-270.4,114.6-326.637,86.285-387.938,88.107
					C-388.076,88.217-388.346,88.045-388.467,88.131z"/>
				
					<linearGradient id="path4039_1_" gradientUnits="userSpaceOnUse" x1="724.3055" y1="675.4319" x2="733.5433" y2="690.4816" gradientTransform="matrix(-34.4986 0 0 -34.0744 24672.7461 23182.7637)">
					<stop  offset="0" style="stop-color:#97CA43"/>
					<stop  offset="1" style="stop-color:#97CA43;stop-opacity:0"/>
				</linearGradient>
				<path id="path4039" fill="url(#path4039_1_)" d="M-388.467,88.131c-16.615,10.172-32.03,22.113-46.211,35.304
					c45.658,8.83,91.478,49.754,116.575,83.673c21.877,34.789,33.761,66.706,49.198,99.633
					c10.453-9.008,21.095-18.184,32.593-27.591l-0.069-143.028C-270.4,114.6-326.637,86.285-387.938,88.107
					C-388.076,88.217-388.346,88.045-388.467,88.131z"/>
			</g>
		</g>
	</g>
</g>
</svg>
