<?xml version="1.0" encoding="utf-8"?>
<!-- Generator: Adobe Illustrator 19.0.0, SVG Export Plug-In . SVG Version: 6.00 Build 0)  -->
<svg version="1.1" xmlns="http://www.w3.org/2000/svg" xmlns:xlink="http://www.w3.org/1999/xlink" x="0px" y="0px"
	 viewBox="944 -840 2500 2472" style="enable-background:new 944 -840 2500 2472;" xml:space="preserve">
<style type="text/css">
	.st0{fill:#666666;}
	.st1{fill:url(#SVGID_1_);}
	.st2{fill:#00A54D;}
	.st3{fill:url(#SVGID_2_);}
	.st4{fill:#02A74D;}
	.st5{fill:url(#SVGID_3_);}
	.st6{fill:url(#SVGID_4_);}
	.st7{fill:url(#SVGID_5_);}
	.st8{fill:#C9E526;}
</style>
<g id="Calque_1">
	<path class="st0" d="M3186.9,397.3c0.1,542.1-444.3,981.7-992.7,981.7c-548.3,0.1-992.9-439.4-993-981.5v-0.3
		c-0.1-542.2,444.3-981.7,992.7-981.8c548.3-0.1,992.9,439.3,993,981.5L3186.9,397.3L3186.9,397.3z"/>
	
		<radialGradient id="SVGID_1_" cx="-8645.0938" cy="306.7745" r="2.5227" gradientTransform="matrix(0 729.4088 -647.6815 0 200863.7031 6306098.5)" gradientUnits="userSpaceOnUse">
		<stop  offset="0.259" style="stop-color:#FFFFFF"/>
		<stop  offset="1" style="stop-color:#FFFFFF;stop-opacity:0"/>
	</radialGradient>
	<path class="st1" d="M3186.9,397.3c0.1,542.1-444.3,981.7-992.7,981.7c-548.3,0.1-992.9-439.4-993-981.5v-0.3
		c-0.1-542.2,444.3-981.7,992.7-981.8c548.3-0.1,992.9,439.3,993,981.5L3186.9,397.3L3186.9,397.3z"/>
	<path class="st2" d="M1942.1-32.7c-109.6,132.9-568.8,673-528.1,1038.2c28.3,35.9,59.6,69.5,92.6,101.2
		c-4.8-279.6,323.2-578.7,579.3-804.5L1942.1-32.7L1942.1-32.7z"/>
	<g transform="matrix(1.0075 0 0 1.00084 1.107 -34.93)">
		
			<linearGradient id="SVGID_2_" gradientUnits="userSpaceOnUse" x1="-8444.5977" y1="340.3775" x2="-8447.7402" y2="336.6904" gradientTransform="matrix(443.7749 0 0 432.1571 3749320.5 -146395.5469)">
			<stop  offset="0" style="stop-color:#97CA43"/>
			<stop  offset="1" style="stop-color:#97CA43;stop-opacity:0"/>
		</linearGradient>
		<path class="st3" d="M1926.5,2.2c-108.8,132.8-564.6,672.4-524.2,1037.3c28.1,35.9,59.1,69.4,91.9,101.2
			c-4.8-279.3,320.8-578.2,574.9-803.8L1926.5,2.2z"/>
	</g>
	<g transform="matrix(1.0075 0 0 1.00084 .968 -34.898)">
		<path class="st4" d="M1659.2-402.4c-56.9,34.4-109.6,74.9-158.1,119.5c156.3,29.9,313.2,168.4,399.1,283.2
			c74.9,117.8,115.5,225.8,168.4,337.3c35.8-30.5,72.2-61.6,111.6-93.4l-0.2-484.2c-116.5-72.9-309-168.7-518.9-162.6
			C1660.6-402.1,1659.6-402.7,1659.2-402.4L1659.2-402.4z"/>
		
			<linearGradient id="SVGID_3_" gradientUnits="userSpaceOnUse" x1="-8444.0527" y1="338.8621" x2="-8441.1748" y2="332.4744" gradientTransform="matrix(443.7749 0 0 432.1571 3749067.75 -146392.9063)">
			<stop  offset="0" style="stop-color:#97CA43"/>
			<stop  offset="1" style="stop-color:#97CA43;stop-opacity:0"/>
		</linearGradient>
		<path class="st5" d="M1659.2-402.4c-56.9,34.4-109.6,74.9-158.1,119.5c156.3,29.9,313.2,168.4,399.1,283.2
			c74.9,117.8,115.5,225.8,168.4,337.3c35.8-30.5,72.2-61.6,111.6-93.4l-0.2-484.2c-116.5-72.9-309-168.7-518.9-162.6
			C1660.6-402.1,1659.6-402.7,1659.2-402.4L1659.2-402.4z"/>
	</g>
	<g>
		<path class="st2" d="M2446.4-32.3c109.2,133,566.9,673.6,526.3,1039c-28.2,36-59.4,69.6-92.3,101.3
			c4.8-279.8-322.2-579.2-577.4-805.2L2446.4-32.3L2446.4-32.3z"/>
		<g transform="matrix(-1.00417 0 0 1.00169 61.912 -34.932)">
			
				<linearGradient id="SVGID_4_" gradientUnits="userSpaceOnUse" x1="-2731.1965" y1="338.5116" x2="-2734.3372" y2="334.8269" gradientTransform="matrix(437.9291 0 0 433.6184 1193477.75 -146210.6719)">
				<stop  offset="0" style="stop-color:#97CA43"/>
				<stop  offset="1" style="stop-color:#97CA43;stop-opacity:0"/>
			</linearGradient>
			<path class="st6" d="M-2374.5,2.6c-108.8,132.8-564.6,672.4-524.2,1037.3c28.1,35.9,59.1,69.5,91.9,101.2
				c-4.8-279.3,320.9-578.2,575-803.9L-2374.5,2.6z"/>
		</g>
		<g transform="matrix(-1.00417 0 0 1.00169 62.051 -34.9)">
			<path class="st4" d="M-2641.8-402c-56.9,34.4-109.7,74.9-158.2,119.5c156.3,29.9,313.2,168.4,399.1,283.3
				c74.9,117.8,115.6,225.8,168.4,337.3c35.8-30.5,72.2-61.6,111.6-93.4l-0.2-484.2c-116.5-72.9-309-168.7-518.9-162.5
				C-2640.5-401.7-2641.4-402.3-2641.8-402L-2641.8-402z"/>
			
				<linearGradient id="SVGID_5_" gradientUnits="userSpaceOnUse" x1="-2730.6758" y1="336.8973" x2="-2728.2158" y2="332.8901" gradientTransform="matrix(437.9291 0 0 433.6184 1193466.875 -146208.4063)">
				<stop  offset="0" style="stop-color:#97CA43"/>
				<stop  offset="1" style="stop-color:#97CA43;stop-opacity:0"/>
			</linearGradient>
			<path class="st7" d="M-2641.8-402c-56.9,34.4-109.7,74.9-158.2,119.5c156.3,29.9,313.2,168.4,399.1,283.3
				c74.9,117.8,115.6,225.8,168.4,337.3c35.8-30.5,72.2-61.6,111.6-93.4l-0.2-484.2c-116.5-72.9-309-168.7-518.9-162.5
				C-2640.5-401.7-2641.4-402.3-2641.8-402L-2641.8-402z"/>
		</g>
	</g>
</g>
<g id="Calque_2">
	<g>
	</g>
	<g>
	</g>
	<g>
		<path class="st8" d="M3264.2,447c-25.3,530.1-443.7,957.5-973.7,1004.2v177.2C2919.3,1581,3417.2,1074.7,3442.9,447H3264.2z"/>
	</g>
</g>
</svg>
